<?xml version="1.0" encoding="UTF-8" standalone="no"?><!-- Generator: Gravit.io --><svg xmlns="http://www.w3.org/2000/svg" xmlns:xlink="http://www.w3.org/1999/xlink" style="isolation:isolate" viewBox="0 0 144 33" width="144pt" height="33pt"><defs><clipPath id="_clipPath_Qy5z8JwZH8FrkHWue3ZAFjfXjWIlm4RZ"><rect width="144" height="33"/></clipPath></defs><g clip-path="url(#_clipPath_Qy5z8JwZH8FrkHWue3ZAFjfXjWIlm4RZ)"><clipPath id="_clipPath_oMZosecmD9NH3BFJ14w97e3kcCDBkx8f"><rect x="-2" y="-0.792" width="156.063" height="36.125" transform="matrix(1,0,0,1,0,0)" fill="rgb(255,255,255)"/></clipPath><g clip-path="url(#_clipPath_oMZosecmD9NH3BFJ14w97e3kcCDBkx8f)"><g><g><path d=" M 14.74 1.423 C 16.529 1.417 18.289 1.849 19.871 2.683 C 21.326 3.471 22.603 4.546 23.627 5.846 C 24.616 7.083 25.398 8.469 25.938 9.958 C 26.192 10.643 26.387 11.344 26.525 12.057 C 26.652 12.69 26.715 13.34 26.721 13.99 C 26.715 14.634 26.64 15.278 26.502 15.905 C 26.347 16.63 26.134 17.343 25.864 18.033 C 25.559 18.81 25.208 19.563 24.805 20.288 C 24.368 21.093 23.885 21.864 23.356 22.611 C 22.183 24.274 20.843 25.809 19.359 27.201 C 17.823 28.65 16.149 29.956 14.372 31.101 C 13.785 30.692 13.222 30.266 12.664 29.818 C 11.1 28.593 9.61 27.27 8.207 25.855 C 7.379 25.01 6.585 24.13 5.843 23.204 C 5.084 22.278 4.399 21.294 3.79 20.265 C 3.197 19.281 2.72 18.234 2.352 17.148 C 2.012 16.129 1.828 15.065 1.823 13.99 C 1.823 12.61 2.03 11.241 2.432 9.93 C 2.875 8.446 3.583 7.06 4.526 5.84 C 5.573 4.5 6.924 3.425 8.466 2.694 C 9.363 2.28 10.306 1.964 11.272 1.763 C 12.411 1.532 13.573 1.417 14.74 1.423 Z  M 13.722 11.283 C 13.803 11.514 14.025 11.744 14.272 11.744 C 14.514 11.744 14.734 11.519 14.815 11.289 C 14.895 11.059 14.988 10.829 15.091 10.61 C 15.344 10.07 15.643 9.801 15.994 9.317 C 16.408 8.737 16.92 8.479 17.513 8.076 C 18.145 7.662 18.882 7.675 19.64 7.664 L 19.664 7.664 C 20.325 7.675 20.969 7.836 21.556 8.135 C 22.2 8.463 22.775 8.912 23.258 9.452 C 24.322 10.637 24.921 12.167 24.926 13.76 L 24.926 13.841 C 24.921 14.065 24.891 14.295 24.846 14.513 C 24.782 14.807 24.707 15.1 24.616 15.382 C 24.368 16.112 24.081 16.826 23.741 17.51 C 22.902 19.224 21.924 20.857 20.814 22.404 C 20.25 23.192 19.658 23.963 19.025 24.699 C 18.462 25.366 17.858 25.999 17.213 26.591 C 16.707 27.069 16.149 27.489 15.546 27.839 C 15.321 27.966 15.08 28.069 14.832 28.156 C 14.654 28.213 14.464 28.248 14.269 28.254 C 14.079 28.248 13.883 28.213 13.705 28.156 C 13.458 28.069 13.216 27.966 12.992 27.839 C 12.383 27.483 11.819 27.069 11.307 26.586 C 10.657 25.993 10.042 25.366 9.472 24.693 C 8.839 23.957 8.235 23.192 7.666 22.399 C 6.539 20.852 5.549 19.218 4.698 17.504 C 4.353 16.82 4.054 16.107 3.807 15.376 C 3.709 15.094 3.628 14.801 3.565 14.508 C 3.52 14.289 3.491 14.065 3.485 13.841 L 3.479 13.691 C 3.479 12.869 3.611 12.052 3.882 11.276 C 4.124 10.579 4.503 9.93 4.997 9.378 C 5.481 8.842 6.073 8.411 6.729 8.124 C 7.465 7.813 8.253 7.658 9.047 7.664 C 9.052 7.664 9.052 7.664 9.052 7.664 L 9.07 7.664 C 9.8 7.675 10.507 7.651 11.111 8.065 C 11.686 8.467 12.181 8.725 12.578 9.306 C 12.917 9.789 13.211 10.058 13.452 10.599 C 13.556 10.823 13.648 11.048 13.722 11.283 Z " fill-rule="evenodd" fill="rgb(0,0,0)"/><linearGradient id="_lgradient_0" x1="0.5" y1="0" x2="0.49999999999999983" y2="1" gradientTransform="matrix(3.903,0,0,3.251,12.32,15.456)" gradientUnits="userSpaceOnUse"><stop offset="0%" stop-opacity="1" style="stop-color:rgb(255,153,0)"/><stop offset="98.26086956521739%" stop-opacity="1" style="stop-color:rgb(255,8,3)"/></linearGradient><path d=" M 13.764 18.372 L 13.105 17.319 L 12.447 16.267 C 12.167 15.819 12.368 15.456 12.895 15.456 L 14.272 15.456 L 15.648 15.456 C 16.176 15.456 16.377 15.819 16.097 16.267 L 15.438 17.319 L 14.779 18.372 C 14.499 18.819 14.044 18.819 13.764 18.372 Z " fill="url(#_lgradient_0)"/><path d=" M 7.446 13.14 C 7.446 12.121 8.216 11.293 9.164 11.293 C 10.112 11.293 10.882 12.121 10.882 13.14 C 10.882 14.159 10.112 14.986 9.164 14.986 C 8.216 14.986 7.446 14.159 7.446 13.14 Z " fill="rgb(0,0,0)"/><path d=" M 17.501 13.14 C 17.501 12.121 18.271 11.293 19.219 11.293 C 20.167 11.293 20.936 12.121 20.936 13.14 C 20.936 14.159 20.167 14.986 19.219 14.986 C 18.271 14.986 17.501 14.159 17.501 13.14 Z " fill="rgb(0,0,0)"/><g><linearGradient id="_lgradient_1" x1="0.5" y1="0" x2="0.49999999999999983" y2="1" gradientTransform="matrix(8.367,0,0,8.92,15.526,23.204)" gradientUnits="userSpaceOnUse"><stop offset="0%" stop-opacity="1" style="stop-color:rgb(255,153,0)"/><stop offset="98.26086956521739%" stop-opacity="1" style="stop-color:rgb(255,8,3)"/></linearGradient><path d=" M 18.755 23.204 L 19.852 25.997 L 22.423 26.17 L 22.104 28.969 L 23.893 30.378 L 19.73 32.124 L 15.526 31.352 L 15.526 27.694 L 18.755 23.204 Z " fill-rule="evenodd" fill="url(#_lgradient_1)"/><linearGradient id="_lgradient_2" x1="0.5" y1="0" x2="0.49999999999999983" y2="1" gradientTransform="matrix(8.367,0,0,8.92,4.65,23.204)" gradientUnits="userSpaceOnUse"><stop offset="0%" stop-opacity="1" style="stop-color:rgb(255,153,0)"/><stop offset="98.26086956521739%" stop-opacity="1" style="stop-color:rgb(255,8,3)"/></linearGradient><path d=" M 9.789 23.204 L 8.69 25.997 L 6.12 26.17 L 6.439 28.969 L 4.65 30.378 L 8.814 32.124 L 13.017 31.352 L 13.017 27.694 L 9.789 23.204 Z " fill-rule="evenodd" fill="url(#_lgradient_2)"/></g></g><path d=" M 32.86 26.358 L 32.86 13.374 L 32.86 13.374 Q 32.86 11.965 33.33 11.284 L 33.33 11.284 L 33.33 11.284 Q 33.799 10.603 34.762 10.603 L 34.762 10.603 L 34.762 10.603 Q 35.701 10.603 36.165 11.29 L 36.165 11.29 L 36.165 11.29 Q 36.629 11.977 36.629 13.374 L 36.629 13.374 L 36.629 26.358 L 36.629 26.358 Q 36.629 27.767 36.171 28.442 L 36.171 28.442 L 36.171 28.442 Q 35.713 29.117 34.762 29.117 L 34.762 29.117 L 34.762 29.117 Q 33.799 29.117 33.33 28.436 L 33.33 28.436 L 33.33 28.436 Q 32.86 27.755 32.86 26.358 L 32.86 26.358 Z  M 39.177 12.798 L 39.177 12.798 L 39.177 12.798 Q 39.177 11.894 39.822 11.249 L 39.822 11.249 L 39.822 11.249 Q 40.468 10.603 41.372 10.603 L 41.372 10.603 L 41.372 10.603 Q 42.264 10.603 42.898 11.249 L 42.898 11.249 L 42.898 11.249 Q 43.532 11.894 43.532 12.798 L 43.532 12.798 L 43.532 12.798 Q 43.532 13.714 42.904 14.348 L 42.904 14.348 L 42.904 14.348 Q 42.276 14.982 41.372 14.982 L 41.372 14.982 L 41.372 14.982 Q 40.445 14.982 39.81 14.348 L 39.81 14.348 L 39.81 14.348 Q 39.177 13.714 39.177 12.798 Z  M 43.238 18.739 L 43.238 26.358 L 43.238 26.358 Q 43.238 27.767 42.781 28.442 L 42.781 28.442 L 42.781 28.442 Q 42.323 29.117 41.372 29.117 L 41.372 29.117 L 41.372 29.117 Q 40.409 29.117 39.94 28.436 L 39.94 28.436 L 39.94 28.436 Q 39.47 27.755 39.47 26.358 L 39.47 26.358 L 39.47 18.739 L 39.47 18.739 Q 39.47 17.342 39.934 16.667 L 39.934 16.667 L 39.934 16.667 Q 40.397 15.992 41.372 15.992 L 41.372 15.992 L 41.372 15.992 Q 42.323 15.992 42.781 16.667 L 42.781 16.667 L 42.781 16.667 Q 43.238 17.342 43.238 18.739 L 43.238 18.739 Z  M 45.962 26.358 L 45.962 26.358 L 45.962 18.739 L 45.962 18.739 Q 45.962 17.342 46.426 16.667 L 46.426 16.667 L 46.426 16.667 Q 46.89 15.992 47.852 15.992 L 47.852 15.992 L 47.852 15.992 Q 48.428 15.992 48.874 16.291 L 48.874 16.291 L 48.874 16.291 Q 49.32 16.591 49.66 17.201 L 49.66 17.201 L 49.66 17.201 Q 50.271 16.532 51.069 16.227 L 51.069 16.227 L 51.069 16.227 Q 51.867 15.921 53.006 15.921 L 53.006 15.921 L 53.006 15.921 Q 55.249 15.921 56.434 17.201 L 56.434 17.201 L 56.434 17.201 Q 57.62 18.481 57.62 20.923 L 57.62 20.923 L 57.62 26.358 L 57.62 26.358 Q 57.62 27.755 57.15 28.436 L 57.15 28.436 L 57.15 28.436 Q 56.681 29.117 55.718 29.117 L 55.718 29.117 L 55.718 29.117 Q 54.755 29.117 54.286 28.436 L 54.286 28.436 L 54.286 28.436 Q 53.816 27.755 53.816 26.358 L 53.816 26.358 L 53.816 22.073 L 53.816 22.073 Q 53.816 20.488 53.341 19.813 L 53.341 19.813 L 53.341 19.813 Q 52.865 19.138 51.773 19.138 L 51.773 19.138 L 51.773 19.138 Q 50.74 19.138 50.247 19.836 L 50.247 19.836 L 50.247 19.836 Q 49.754 20.535 49.754 22.026 L 49.754 22.026 L 49.754 26.358 L 49.754 26.358 Q 49.754 27.755 49.284 28.436 L 49.284 28.436 L 49.284 28.436 Q 48.815 29.117 47.852 29.117 L 47.852 29.117 L 47.852 29.117 Q 46.89 29.117 46.426 28.436 L 46.426 28.436 L 46.426 28.436 Q 45.962 27.755 45.962 26.358 Z  M 60.039 23.787 L 60.039 23.787 L 60.039 18.739 L 60.039 18.739 Q 60.039 17.342 60.508 16.667 L 60.508 16.667 L 60.508 16.667 Q 60.978 15.992 61.94 15.992 L 61.94 15.992 L 61.94 15.992 Q 62.891 15.992 63.355 16.667 L 63.355 16.667 L 63.355 16.667 Q 63.819 17.342 63.819 18.739 L 63.819 18.739 L 63.819 23.012 L 63.819 23.012 Q 63.819 24.527 64.276 25.155 L 64.276 25.155 L 64.276 25.155 Q 64.734 25.783 65.768 25.783 L 65.768 25.783 L 65.768 25.783 Q 66.801 25.783 67.258 25.155 L 67.258 25.155 L 67.258 25.155 Q 67.716 24.527 67.716 23.012 L 67.716 23.012 L 67.716 18.739 L 67.716 18.739 Q 67.716 17.342 68.18 16.667 L 68.18 16.667 L 68.18 16.667 Q 68.644 15.992 69.618 15.992 L 69.618 15.992 L 69.618 15.992 Q 70.569 15.992 71.027 16.661 L 71.027 16.661 L 71.027 16.661 Q 71.485 17.33 71.485 18.739 L 71.485 18.739 L 71.485 23.787 L 71.485 23.787 Q 71.485 26.487 70.018 27.914 L 70.018 27.914 L 70.018 27.914 Q 68.55 29.34 65.768 29.34 L 65.768 29.34 L 65.768 29.34 Q 62.985 29.34 61.512 27.914 L 61.512 27.914 L 61.512 27.914 Q 60.039 26.487 60.039 23.787 Z  M 81.487 28.131 L 78.776 24.914 L 76.087 28.131 L 76.087 28.131 Q 75.652 28.659 75.271 28.888 L 75.271 28.888 L 75.271 28.888 Q 74.889 29.117 74.443 29.117 L 74.443 29.117 L 74.443 29.117 Q 73.704 29.117 73.164 28.565 L 73.164 28.565 L 73.164 28.565 Q 72.624 28.014 72.624 27.25 L 72.624 27.25 L 72.624 27.25 Q 72.624 26.816 72.771 26.476 L 72.771 26.476 L 72.771 26.476 Q 72.917 26.135 73.41 25.583 L 73.41 25.583 L 76.568 22.12 L 73.915 19.432 L 73.915 19.432 Q 73.575 19.067 73.387 18.668 L 73.387 18.668 L 73.387 18.668 Q 73.199 18.269 73.199 17.894 L 73.199 17.894 L 73.199 17.894 Q 73.199 17.142 73.733 16.567 L 73.733 16.567 L 73.733 16.567 Q 74.267 15.992 74.971 15.992 L 74.971 15.992 L 74.971 15.992 Q 75.418 15.992 75.805 16.186 L 75.805 16.186 L 75.805 16.186 Q 76.192 16.379 76.545 16.79 L 76.545 16.79 L 78.846 19.455 L 80.959 16.86 L 80.959 16.86 Q 81.288 16.461 81.716 16.215 L 81.716 16.215 L 81.716 16.215 Q 82.145 15.968 82.497 15.968 L 82.497 15.968 L 82.497 15.968 Q 83.295 15.968 83.87 16.526 L 83.87 16.526 L 83.87 16.526 Q 84.446 17.083 84.446 17.847 L 84.446 17.847 L 84.446 17.847 Q 84.446 18.199 84.234 18.61 L 84.234 18.61 L 84.234 18.61 Q 84.023 19.021 83.612 19.479 L 83.612 19.479 L 81.112 22.144 L 84.07 25.489 L 84.07 25.489 Q 84.61 26.088 84.78 26.487 L 84.78 26.487 L 84.78 26.487 Q 84.95 26.886 84.95 27.368 L 84.95 27.368 L 84.95 27.368 Q 84.95 28.084 84.44 28.601 L 84.44 28.601 L 84.44 28.601 Q 83.929 29.117 83.225 29.117 L 83.225 29.117 L 83.225 29.117 Q 82.743 29.117 82.35 28.894 L 82.35 28.894 L 82.35 28.894 Q 81.957 28.671 81.487 28.131 L 81.487 28.131 Z " fill="rgb(0,0,0)"/><linearGradient id="_lgradient_3" x1="0.5" y1="0" x2="0.49999999999999983" y2="0.9999999999999999" gradientTransform="matrix(40.679,0,0,18.737,98.761,10.603)" gradientUnits="userSpaceOnUse"><stop offset="0%" stop-opacity="1" style="stop-color:rgb(255,191,0)"/><stop offset="100%" stop-opacity="1" style="stop-color:rgb(255,5,2)"/><stop offset="100%" stop-opacity="1" style="stop-color:rgb(0,0,0)"/></linearGradient><path d=" M 102.554 13.374 L 102.554 17.119 L 102.554 17.119 Q 103.164 16.485 103.915 16.203 L 103.915 16.203 L 103.915 16.203 Q 104.667 15.921 105.805 15.921 L 105.805 15.921 L 105.805 15.921 Q 108.048 15.921 109.233 17.201 L 109.233 17.201 L 109.233 17.201 Q 110.419 18.481 110.419 20.923 L 110.419 20.923 L 110.419 26.358 L 110.419 26.358 Q 110.419 27.755 109.95 28.436 L 109.95 28.436 L 109.95 28.436 Q 109.48 29.117 108.517 29.117 L 108.517 29.117 L 108.517 29.117 Q 107.555 29.117 107.085 28.436 L 107.085 28.436 L 107.085 28.436 Q 106.616 27.755 106.616 26.358 L 106.616 26.358 L 106.616 22.073 L 106.616 22.073 Q 106.616 20.488 106.14 19.813 L 106.14 19.813 L 106.14 19.813 Q 105.664 19.138 104.573 19.138 L 104.573 19.138 L 104.573 19.138 Q 103.54 19.138 103.047 19.836 L 103.047 19.836 L 103.047 19.836 Q 102.554 20.535 102.554 22.026 L 102.554 22.026 L 102.554 26.358 L 102.554 26.358 Q 102.554 27.755 102.084 28.436 L 102.084 28.436 L 102.084 28.436 Q 101.614 29.117 100.652 29.117 L 100.652 29.117 L 100.652 29.117 Q 99.689 29.117 99.225 28.436 L 99.225 28.436 L 99.225 28.436 Q 98.761 27.755 98.761 26.358 L 98.761 26.358 L 98.761 13.374 L 98.761 13.374 Q 98.761 11.965 99.225 11.284 L 99.225 11.284 L 99.225 11.284 Q 99.689 10.603 100.652 10.603 L 100.652 10.603 L 100.652 10.603 Q 101.614 10.603 102.084 11.296 L 102.084 11.296 L 102.084 11.296 Q 102.554 11.989 102.554 13.374 L 102.554 13.374 Z  M 112.837 23.787 L 112.837 23.787 L 112.837 18.739 L 112.837 18.739 Q 112.837 17.342 113.307 16.667 L 113.307 16.667 L 113.307 16.667 Q 113.777 15.992 114.74 15.992 L 114.74 15.992 L 114.74 15.992 Q 115.69 15.992 116.154 16.667 L 116.154 16.667 L 116.154 16.667 Q 116.618 17.342 116.618 18.739 L 116.618 18.739 L 116.618 23.012 L 116.618 23.012 Q 116.618 24.527 117.076 25.155 L 117.076 25.155 L 117.076 25.155 Q 117.534 25.783 118.567 25.783 L 118.567 25.783 L 118.567 25.783 Q 119.6 25.783 120.058 25.155 L 120.058 25.155 L 120.058 25.155 Q 120.516 24.527 120.516 23.012 L 120.516 23.012 L 120.516 18.739 L 120.516 18.739 Q 120.516 17.342 120.98 16.667 L 120.98 16.667 L 120.98 16.667 Q 121.443 15.992 122.417 15.992 L 122.417 15.992 L 122.417 15.992 Q 123.369 15.992 123.826 16.661 L 123.826 16.661 L 123.826 16.661 Q 124.284 17.33 124.284 18.739 L 124.284 18.739 L 124.284 23.787 L 124.284 23.787 Q 124.284 26.487 122.816 27.914 L 122.816 27.914 L 122.816 27.914 Q 121.349 29.34 118.567 29.34 L 118.567 29.34 L 118.567 29.34 Q 115.784 29.34 114.311 27.914 L 114.311 27.914 L 114.311 27.914 Q 112.837 26.487 112.837 23.787 Z  M 130.565 22.484 L 130.565 22.484 L 130.565 22.484 Q 130.565 23.916 131.263 24.785 L 131.263 24.785 L 131.263 24.785 Q 131.962 25.654 133.066 25.654 L 133.066 25.654 L 133.066 25.654 Q 134.157 25.654 134.862 24.773 L 134.862 24.773 L 134.862 24.773 Q 135.566 23.893 135.566 22.484 L 135.566 22.484 L 135.566 22.484 Q 135.566 21.052 134.868 20.16 L 134.868 20.16 L 134.868 20.16 Q 134.169 19.267 133.066 19.267 L 133.066 19.267 L 133.066 19.267 Q 131.962 19.267 131.263 20.154 L 131.263 20.154 L 131.263 20.154 Q 130.565 21.04 130.565 22.484 Z  M 130.635 13.374 L 130.635 16.837 L 130.635 16.837 Q 131.258 16.297 132.003 16.027 L 132.003 16.027 L 132.003 16.027 Q 132.749 15.757 133.617 15.757 L 133.617 15.757 L 133.617 15.757 Q 136.071 15.757 137.756 17.7 L 137.756 17.7 L 137.756 17.7 Q 139.441 19.643 139.441 22.554 L 139.441 22.554 L 139.441 22.554 Q 139.441 25.301 137.715 27.245 L 137.715 27.245 L 137.715 27.245 Q 135.989 29.187 133.617 29.187 L 133.617 29.187 L 133.617 29.187 Q 132.678 29.187 131.891 28.859 L 131.891 28.859 L 131.891 28.859 Q 131.105 28.53 130.542 27.896 L 130.542 27.896 L 130.542 27.896 Q 130.189 28.506 129.738 28.812 L 129.738 28.812 L 129.738 28.812 Q 129.286 29.117 128.734 29.117 L 128.734 29.117 L 128.734 29.117 Q 127.771 29.117 127.307 28.436 L 127.307 28.436 L 127.307 28.436 Q 126.843 27.755 126.843 26.358 L 126.843 26.358 L 126.843 13.374 L 126.843 13.374 Q 126.843 11.965 127.307 11.284 L 127.307 11.284 L 127.307 11.284 Q 127.771 10.603 128.734 10.603 L 128.734 10.603 L 128.734 10.603 Q 129.696 10.603 130.166 11.284 L 130.166 11.284 L 130.166 11.284 Q 130.635 11.965 130.635 13.374 L 130.635 13.374 Z " fill="url(#_lgradient_3)"/><path d=" M 97.112 13.55 L 89.657 27.661 L 89.657 27.661 Q 89.293 28.378 88.882 28.718 L 88.882 28.718 L 88.882 28.718 Q 88.471 29.058 87.978 29.058 L 87.978 29.058 L 87.978 29.058 Q 87.321 29.058 86.857 28.618 L 86.857 28.618 L 86.857 28.618 Q 86.393 28.178 86.393 27.544 L 86.393 27.544 L 86.393 27.544 Q 86.393 27.286 86.475 26.998 L 86.475 26.998 L 86.475 26.998 Q 86.558 26.71 86.734 26.394 L 86.734 26.394 L 94.2 12.282 L 94.2 12.282 Q 94.623 11.507 95.01 11.196 L 95.01 11.196 L 95.01 11.196 Q 95.398 10.885 95.891 10.885 L 95.891 10.885 L 95.891 10.885 Q 96.56 10.885 97.018 11.313 L 97.018 11.313 L 97.018 11.313 Q 97.476 11.742 97.476 12.376 L 97.476 12.376 L 97.476 12.376 Q 97.476 12.611 97.388 12.892 L 97.388 12.892 L 97.388 12.892 Q 97.3 13.174 97.112 13.55 L 97.112 13.55 Z " fill="rgb(0,0,0)"/></g></g></g></svg>